{"title":"Madaari (2016) 720p Web Rip x264 AC3 -DDR","uid":15922797,"size":1721392968,"categoryP":"video","categoryS":"hd___movies","magnet":"?xt=urn:btih:e9ff680c2bf691de87ece41d33bf35063e77e143&amp;dn=Madaari+%282016%29+720p+Web+Rip+x264+AC3+-DDR&amp;tr=udp%3A%2F%2Ftracker.leechers-paradise.org%3A6969&amp;tr=udp%3A%2F%2Fzer0day.ch%3A1337&amp;tr=udp%3A%2F%2Fopen.demonii.com%3A1337&amp;tr=udp%3A%2F%2Ftracker.coppersurfer.tk%3A6969&amp;tr=udp%3A%2F%2Fexodus.desync.com%3A6969","seeders":137,"leechers":520,"uploader":"SaM","files":3,"time":1475265567,"description":"\n720p WebRip x264\r\n\r\nHindi AC3 Stereo Audio\r\n\r\n\r\nA man named Nirmal loses his family in a man-made disaster, he starts the journey of seeking answers asking for accountability which urges him to take revenge.\r\n\r\nDirector: Nishikant Kamat\r\nWriters: Shailja Kejriwal (story), Ritesh Shah (screenplay)\r\nStars: Irrfan Khan, Jimmy Shergill, Vishesh Bansal\r\n\r\n\r\n\r\n\r\n\r\n{ SCREENSHOTS }\r\n \nhttps://extraimago.com/image/wzSH \nhttps://extraimago.com/image/wzSF \nhttps://extraimago.com/image/wzSD \nhttps://extraimago.com/image/wzS5 \nhttps://extraimago.com/image/wzSg \nhttps://extraimago.com/image/wzSX \nhttps://extraimago.com/image/wzSP \nhttps://extraimago.com/image/wzSG \nhttps://extraimago.com/image/wzSr \nhttps://extraimago.com/image/wzSp \nhttps://extraimago.com/image/wzSY \nhttps://extraimago.com/image/wzSC \nhttps://extraimago.com/image/wzSB \nhttps://extraimago.com/image/wzS4 \nhttps://extraimago.com/image/wzSe \nhttps://extraimago.com/image/wzSZ\r\n\r\nSpecs:\r\nSource: WEB HD @ DDR\r\nFormat : Matroska\r\nFile size : 1.59 GiB\r\nDuration : 2 h 10 min\r\nOverall bit rate : 1 744 kb/s\r\n\r\n\r\nVideo\r\nID : 1\r\nFormat : AVC\r\nFormat/Info : Advanced Video Codec\r\nFormat profile :   \r\nFormat settings, CABAC : Yes\r\nFormat settings, ReFrames : 12 frames\r\nCodec ID : V_MPEG4/ISO/AVC\r\nDuration : 2 h 10 min\r\nBit rate : 1 499 kb/s\r\nWidth : 1 280 pixels\r\nHeight : 534 pixels\r\nDisplay aspect ratio : 2.40:1\r\nFrame rate mode : Variable\r\nFrame rate : 23.804 FPS\r\nOriginal frame rate : 24.000 FPS\r\nColor space : YUV\r\nChroma subsampling : 4:2:0\r\nBit depth : 8 bits\r\nScan type : Progressive\r\nBits/(Pixel*Frame) : 0.092\r\nStream size : 1.36 GiB (85%)\r\nDefault : Yes\r\nForced : No\r\nColor range : Limited\r\nColor primaries : BT.709\r\nTransfer characteristics : BT.709\r\nMatrix coefficients : BT.709\r\n\r\nAudio\r\nID : 2\r\nFormat : AC-3\r\nFormat/Info : Audio Coding 3\r\nMode extension : CM (complete main)\r\nFormat settings, Endianness : Big\r\nCodec ID : A_AC3\r\nDuration : 2 h 10 min\r\nBit rate mode : Constant\r\nBit rate : 256 kb/s\r\nChannel(s) : 2 channels\r\nChannel positions : Front: L R\r\nSampling rate : 44.1 kHz\r\nFrame rate : 28.711 FPS (1536 spf)\r\nCompression mode : Lossy\r\nStream size : 239 MiB (15%)\r\nLanguage : Hindi\r\nDefault : Yes\r\nForced : No","torrent":{"xt":"urn:btih:e9ff680c2bf691de87ece41d33bf35063e77e143","amp;dn":"Madaari+%282016%29+720p+Web+Rip+x264+AC3+-DDR","amp;tr":["udp%3A%2F%2Ftracker.leechers-paradise.org%3A6969","udp%3A%2F%2Fzer0day.ch%3A1337","udp%3A%2F%2Fopen.demonii.com%3A1337","udp%3A%2F%2Ftracker.coppersurfer.tk%3A6969","udp%3A%2F%2Fexodus.desync.com%3A6969"],"infoHash":"e9ff680c2bf691de87ece41d33bf35063e77e143","infoHashBuffer":{"type":"Buffer","data":[233,255,104,12,43,246,145,222,135,236,228,29,51,191,53,6,62,119,225,67]},"announce":[],"urlList":[]}}